<?xml version="1.0" standalone="no"?>
<!DOCTYPE svg PUBLIC "-//W3C//DTD SVG 20010904//EN"
 "http://www.w3.org/TR/2001/REC-SVG-20010904/DTD/svg10.dtd">
<svg version="1.0" xmlns="http://www.w3.org/2000/svg"
 width="100.000000pt" height="100.000000pt" viewBox="0 0 100.000000 100.000000"
 preserveAspectRatio="xMidYMid meet">
<metadata>
Created by potrace 1.10, written by Peter Selinger 2001-2011
</metadata>
<g transform="translate(0.000000,100.000000) scale(0.100000,-0.100000)"
fill="#9900ff" stroke="none">
<path d="M116 701 c-3 -5 16 -25 42 -44 54 -39 54 -39 111 -226 37 -121 40
-136 26 -151 -19 -21 -19 -25 1 -44 13 -14 48 -16 231 -16 149 0 214 3 211 11
-2 7 -70 10 -210 9 -210 -1 -234 3 -207 36 10 13 43 15 197 13 l185 -1 28 61
c20 43 24 63 16 65 -7 2 -38 9 -69 16 -66 13 -103 48 -114 106 -7 38 -22 48
-89 57 -197 28 -240 39 -292 78 -57 42 -59 43 -67 30z m309 -127 c51 -9 83
-20 88 -30 7 -13 11 -13 17 -4 5 9 14 -2 27 -31 24 -53 42 -69 101 -90 54 -18
63 -49 26 -84 -21 -20 -33 -21 -177 -20 -170 1 -187 6 -187 56 0 16 -3 29 -8
29 -12 0 -45 127 -36 141 4 7 3 10 -4 5 -15 -9 -21 16 -8 37 12 18 8 19 161
-9z"/>
<path d="M621 664 c-17 -14 -36 -42 -42 -63 -17 -56 15 -126 68 -147 116 -49
225 49 179 160 -31 75 -143 102 -205 50z m146 -16 c30 -25 45 -76 33 -114 -33
-99 -167 -99 -200 1 -9 27 -8 39 3 62 16 30 43 57 67 66 22 9 79 0 97 -15z"/>
<path d="M690 604 c0 -33 -2 -35 -27 -32 -15 2 -28 -2 -30 -9 -3 -9 6 -13 26
-13 28 0 31 -3 31 -30 0 -16 5 -30 10 -30 6 0 10 13 10 29 0 26 4 30 33 33 17
2 31 8 31 13 -1 6 -16 9 -33 7 -29 -3 -31 -2 -31 32 0 20 -4 36 -10 36 -5 0
-10 -16 -10 -36z"/>
<path d="M356 195 c-9 -9 -16 -20 -16 -25 0 -14 31 -41 43 -37 21 7 32 36 21
54 -15 24 -29 26 -48 8z"/>
<path d="M649 189 c-21 -21 -21 -21 -1 -41 16 -16 23 -18 41 -9 26 15 27 47 1
61 -16 8 -24 6 -41 -11z"/>
</g>
</svg>
