<?xml version="1.0" standalone="no"?>
<!DOCTYPE svg PUBLIC "-//W3C//DTD SVG 20010904//EN"
 "http://www.w3.org/TR/2001/REC-SVG-20010904/DTD/svg10.dtd">
<svg version="1.0" xmlns="http://www.w3.org/2000/svg"
 width="225.000000pt" height="225.000000pt" viewBox="0 0 225.000000 225.000000"
 preserveAspectRatio="xMidYMid meet">

<g transform="translate(0.000000,225.000000) scale(0.100000,-0.100000)"
fill="#000000" stroke="none">
<path d="M263 1575 c-7 -20 -12 -15 109 -105 l100 -75 112 -365 113 -365 -34
-38 c-38 -43 -38 -45 -17 -75 36 -52 38 -52 537 -52 386 0 466 2 470 14 13 34
-11 36 -472 36 -511 1 -514 1 -466 59 l27 31 421 2 420 3 60 133 c32 73 56
139 54 146 -3 7 -42 20 -88 30 -243 52 -274 77 -339 271 l-27 80 -359 60 -359
61 -117 82 c-64 45 -121 82 -127 82 -7 0 -14 -7 -18 -15z"/>
<path d="M1517 1549 c-142 -34 -238 -166 -224 -305 26 -253 332 -353 514 -169
107 109 110 259 8 372 -72 81 -203 126 -298 102z m156 -65 c79 -27 136 -103
145 -194 9 -99 -43 -191 -134 -236 -46 -23 -64 -26 -113 -21 -72 6 -129 35
-173 87 -62 71 -73 152 -34 235 30 63 69 100 132 125 60 24 116 25 177 4z"/>
<path d="M1557 1434 c-4 -4 -7 -38 -7 -75 l0 -68 -67 -3 c-60 -3 -68 -5 -68
-23 0 -18 8 -20 67 -23 l67 -3 3 -62 c3 -56 5 -62 26 -65 21 -3 22 0 22 62 l0
65 68 3 c59 3 67 5 67 23 0 18 -8 20 -67 23 l-67 3 -3 72 c-2 55 -7 72 -18 75
-9 1 -19 0 -23 -4z"/>
<path d="M814 458 c-22 -10 -44 -47 -44 -73 0 -29 24 -64 51 -76 50 -20 109
21 109 76 0 27 -22 63 -47 74 -29 13 -41 13 -69 -1z"/>
<path d="M1473 448 c-32 -16 -48 -61 -34 -97 12 -27 47 -51 76 -51 29 0 64 24
76 51 28 70 -47 131 -118 97z"/>
</g>
</svg>
