<?xml version="1.0" standalone="no"?>
<!DOCTYPE svg PUBLIC "-//W3C//DTD SVG 20010904//EN"
 "http://www.w3.org/TR/2001/REC-SVG-20010904/DTD/svg10.dtd">
<svg version="1.0" xmlns="http://www.w3.org/2000/svg"
 width="225.000000pt" height="225.000000pt" viewBox="0 0 225.000000 225.000000"
 preserveAspectRatio="xMidYMid meet">

<g transform="translate(0.000000,225.000000) scale(0.100000,-0.100000)"
fill="#000000" stroke="none">
<path d="M274 1569 c-8 -14 7 -29 118 -114 l93 -70 106 -360 105 -360 -23 -28
c-33 -41 -31 -91 4 -114 25 -16 67 -18 497 -21 485 -3 505 -1 473 36 -9 11
-90 13 -467 10 -373 -2 -460 -1 -473 11 -18 15 -13 31 23 69 21 22 24 22 308
23 158 1 340 4 405 8 l119 6 44 109 c24 60 46 117 49 126 5 14 -4 18 -52 23
-171 16 -313 139 -357 312 -9 32 -17 59 -18 60 -2 1 -158 28 -348 60 -190 31
-349 60 -355 63 -5 3 -58 41 -116 84 -109 79 -123 86 -135 67z"/>
<path d="M1517 1549 c-180 -43 -274 -233 -199 -401 62 -139 237 -204 377 -140
268 122 204 513 -90 545 -27 3 -67 1 -88 -4z m169 -62 c16 -8 44 -30 62 -48
117 -119 85 -312 -63 -385 -47 -23 -65 -26 -124 -22 -82 4 -135 35 -186 106
-25 37 -30 55 -33 117 -4 62 0 82 18 117 31 61 58 87 115 115 41 20 61 23 115
20 36 -2 79 -11 96 -20z"/>
<path d="M1556 1414 c-3 -9 -6 -40 -6 -69 l0 -54 -67 -3 c-53 -2 -68 -6 -68
-18 0 -12 15 -16 67 -18 l67 -3 3 -67 c3 -61 5 -67 26 -70 21 -3 22 0 22 67
l0 71 71 0 c62 0 70 2 67 18 -3 14 -16 18 -71 20 l-67 3 0 69 c0 62 -2 70 -19
70 -10 0 -22 -7 -25 -16z"/>
<path d="M806 439 c-52 -41 -23 -129 44 -129 67 0 96 88 44 129 -15 12 -34 21
-44 21 -10 0 -29 -9 -44 -21z"/>
<path d="M1465 435 c-14 -13 -25 -36 -25 -50 0 -33 42 -75 75 -75 33 0 75 42
75 75 0 33 -42 75 -75 75 -14 0 -37 -11 -50 -25z"/>
</g>
</svg>
